<svg width="100%" height="100%" style="overflow:visible;" preserveAspectRatio="none" viewBox="0 0 955.14 287" fill="none" xmlns="http://www.w3.org/2000/svg"><path d="M22.9604 170H66.3056C68.5148 170 70.3056 171.791 70.3056 174V283C70.3056 285.209 68.5148 287 66.3056 287H22.9604V170Z" fill="#E5EAEE"/><rect x="0.317139" y="140" width="28.8188" height="147" rx="4" fill="#FFA800"/><path d="M199.991 121H243.336C245.546 121 247.336 122.791 247.336 125V283C247.336 285.209 245.546 287 243.336 287H199.991V121Z" fill="#E5EAEE"/><rect x="177.348" y="91" width="28.8188" height="196" rx="4" fill="#FFA800"/><path d="M377.02 70H420.365C422.575 70 424.365 71.7909 424.365 74V283C424.365 285.209 422.575 287 420.365 287H377.02V70Z" fill="#E5EAEE"/><rect x="354.377" y="40" width="28.8188" height="247" rx="4" fill="#FFA800"/><path d="M554.051 109.535H597.396C599.605 109.535 601.396 111.326 601.396 113.535V283C601.396 285.209 599.605 287 597.396 287H554.051V109.535Z" fill="#E5EAEE"/><rect x="531.407" y="80" width="28.8189" height="207" rx="4" fill="#FFA800"/><path d="M731.08 78.6709H774.425C776.634 78.6709 778.425 80.4618 778.425 82.6709V283C778.425 285.209 776.634 287 774.425 287H731.08V78.6709Z" fill="#E5EAEE"/><rect x="708.436" y="49" width="28.8189" height="238" rx="4" fill="#FFA800"/><path d="M908.11 30H951.455C953.664 30 955.455 31.7909 955.455 34V283C955.455 285.209 953.664 287 951.455 287H908.11V30Z" fill="#E5EAEE"/><rect x="885.467" width="28.8187" height="287" rx="4" fill="#FFA800"/></svg>