<svg width="100%" height="100%" style="overflow:visible;" preserveAspectRatio="none" viewBox="0 0 28.07 60.75" fill="none" xmlns="http://www.w3.org/2000/svg"><path fill-rule="evenodd" clip-rule="evenodd" d="M1.43872 0.125C0.886436 0.125 0.438721 0.572715 0.438721 1.125V59.875C0.438721 60.4273 0.886434 60.875 1.43872 60.875H9.96349C10.5158 60.875 10.9635 60.4273 10.9635 59.875V1.125C10.9635 0.572715 10.5158 0.125 9.96349 0.125H1.43872ZM18.98 0.125C18.4277 0.125 17.98 0.572715 17.98 1.125V59.875C17.98 60.4273 18.4277 60.875 18.98 60.875H27.5048C28.057 60.875 28.5048 60.4273 28.5048 59.875V1.125C28.5048 0.572715 28.057 0.125 27.5048 0.125H18.98Z" fill="#B5B5C3"/></svg>