<svg width="100%" height="100%" style="overflow:visible;" preserveAspectRatio="none" viewBox="0 0 6.67 15" fill="none" xmlns="http://www.w3.org/2000/svg"><path fill-rule="evenodd" clip-rule="evenodd" d="M1.94824 0.5C1.39596 0.5 0.948242 0.947715 0.948242 1.5V14.5C0.948242 15.0523 1.39596 15.5 1.94824 15.5H2.44824C3.00053 15.5 3.44824 15.0523 3.44824 14.5V1.5C3.44824 0.947715 3.00053 0.5 2.44824 0.5H1.94824ZM6.11491 0.5C5.56262 0.5 5.11491 0.947715 5.11491 1.5V14.5C5.11491 15.0523 5.56262 15.5 6.11491 15.5H6.61491C7.16719 15.5 7.61491 15.0523 7.61491 14.5V1.5C7.61491 0.947715 7.16719 0.5 6.61491 0.5H6.11491Z" fill="#8950FC"/></svg>