<svg width="100%" height="100%" style="overflow:visible;" preserveAspectRatio="none" viewBox="0 0 40 40" fill="none" xmlns="http://www.w3.org/2000/svg"><rect x="0.61499" width="40" height="40" rx="12" fill="#FFF4DE"/><path fill-rule="evenodd" clip-rule="evenodd" d="M20.6151 23.3333C18.3139 23.3333 16.4484 21.4678 16.4484 19.1667H14.7817C14.7817 22.1061 16.9559 24.5377 19.7838 24.9412C19.7824 24.9606 19.7817 24.9802 19.7817 25V27.5C19.7817 27.9602 20.1548 28.3333 20.6151 28.3333C21.0753 28.3333 21.4484 27.9602 21.4484 27.5V25C21.4484 24.9802 21.4477 24.9606 21.4464 24.9412C24.2743 24.5377 26.4484 22.1061 26.4484 19.1667H24.7817C24.7817 21.4678 22.9163 23.3333 20.6151 23.3333Z" fill="#FFA800"/><rect opacity="0.3" x="18.115" y="11.6667" width="5" height="10" rx="2.5" fill="#FFA800"/></svg>