<svg width="100%" height="100%" style="overflow:visible;" preserveAspectRatio="none" viewBox="0 0 40 40" fill="none" xmlns="http://www.w3.org/2000/svg"><rect x="0.61499" width="40" height="40" rx="12" fill="#FFE2E5"/><path opacity="0.3" fill-rule="evenodd" clip-rule="evenodd" d="M18.8473 20.5892L17.0795 22.357C16.7541 22.6824 16.7541 23.2101 17.0795 23.5355C17.405 23.861 17.9326 23.861 18.258 23.5355L20.0258 21.7678L20.6151 22.357C21.2659 23.0079 21.2659 24.0632 20.6151 24.714L18.258 27.0711C17.6072 27.7219 16.5519 27.7219 15.901 27.0711L13.544 24.714C12.8931 24.0632 12.8931 23.0079 13.544 22.357L15.901 20C16.5519 19.3491 17.6072 19.3491 18.258 20L18.8473 20.5892Z" fill="#F64E60"/><path fill-rule="evenodd" clip-rule="evenodd" d="M22.3828 19.4108L24.1506 17.643C24.476 17.3176 24.476 16.7899 24.1506 16.4645C23.8251 16.139 23.2975 16.139 22.9721 16.4645L21.2043 18.2322L20.615 17.643C19.9642 16.9921 19.9642 15.9368 20.615 15.286L22.9721 12.9289C23.6229 12.2781 24.6782 12.2781 25.3291 12.9289L27.6861 15.286C28.337 15.9368 28.337 16.9921 27.6861 17.643L25.3291 20C24.6782 20.6509 23.6229 20.6509 22.9721 20L22.3828 19.4108Z" fill="#F64E60"/><path opacity="0.3" fill-rule="evenodd" clip-rule="evenodd" d="M14.1333 14.6967C13.8078 14.3712 13.8078 13.8436 14.1333 13.5182C14.4587 13.1927 14.9863 13.1927 15.3118 13.5182L16.4903 14.6967C16.8157 15.0221 16.8157 15.5498 16.4903 15.8752C16.1648 16.2006 15.6372 16.2006 15.3118 15.8752L14.1333 14.6967ZM17.5677 12.0956C17.5677 11.6353 17.9408 11.2623 18.401 11.2623C18.8613 11.2623 19.2344 11.6354 19.2344 12.0956L19.2344 13.7623C19.2344 14.2225 18.8613 14.5956 18.401 14.5956C17.9408 14.5956 17.5677 14.2225 17.5677 13.7623V12.0956ZM12.0203 17.643C12.0203 17.1827 12.3934 16.8096 12.8536 16.8096L14.5203 16.8096C14.9805 16.8096 15.3536 17.1827 15.3536 17.643C15.3536 18.1032 14.9805 18.4763 14.5203 18.4763L12.8536 18.4763C12.3934 18.4763 12.0203 18.1032 12.0203 17.643Z" fill="#F64E60"/><path opacity="0.3" fill-rule="evenodd" clip-rule="evenodd" d="M25.8173 26.3807C26.1427 26.7062 26.6704 26.7062 26.9958 26.3807C27.3212 26.0553 27.3212 25.5277 26.9958 25.2022L25.8173 24.0237C25.4919 23.6983 24.9642 23.6983 24.6388 24.0237C24.3133 24.3491 24.3133 24.8768 24.6388 25.2022L25.8173 26.3807ZM28.4184 22.9463C28.8786 22.9463 29.2517 22.5732 29.2517 22.113C29.2517 21.6527 28.8786 21.2796 28.4184 21.2796L26.7517 21.2796C26.2915 21.2796 25.9184 21.6527 25.9184 22.113C25.9184 22.5732 26.2915 22.9463 26.7517 22.9463L28.4184 22.9463ZM22.871 28.4937C23.3313 28.4937 23.7043 28.1206 23.7043 27.6603V25.9937C23.7043 25.5334 23.3313 25.1603 22.871 25.1603C22.4108 25.1603 22.0377 25.5334 22.0377 25.9937L22.0377 27.6603C22.0377 28.1206 22.4108 28.4937 22.871 28.4937Z" fill="#F64E60"/></svg>