<svg width="100%" height="100%" style="overflow:visible;" preserveAspectRatio="none" viewBox="0 0 40 40" fill="none" xmlns="http://www.w3.org/2000/svg"><rect x="0.61499" width="40" height="40" rx="12" fill="#C9F7F5"/><path fill-rule="evenodd" clip-rule="evenodd" d="M28.9445 24.9755C29.2601 25.2911 29.7996 25.0664 29.798 24.6201L29.7848 20.9211V14.6053C29.7848 13.4426 28.8423 12.5 27.6796 12.5H17.855C16.6923 12.5 15.7498 13.4426 15.7498 14.6053V17.5H20.9482C22.6051 17.5 23.9482 18.8431 23.9482 20.5V23.0263H26.9953L28.9445 24.9755Z" fill="#1BC5BD"/><path opacity="0.3" fill-rule="evenodd" clip-rule="evenodd" d="M12.2693 25V20.8334C12.2693 19.9129 13.0155 19.1667 13.936 19.1667H20.6026C21.5231 19.1667 22.2693 19.9129 22.2693 20.8334V25C22.2693 25.9205 21.5231 26.6667 20.6026 26.6667H14.0324L13.1368 27.5239C12.8188 27.8283 12.2911 27.6029 12.2911 27.1627V25.2702C12.2767 25.1823 12.2693 25.092 12.2693 25ZM15.6151 22.0834C15.6151 21.8532 15.8016 21.6667 16.0317 21.6667H20.1984C20.4285 21.6667 20.6151 21.8532 20.6151 22.0834C20.6151 22.3135 20.4285 22.5 20.1984 22.5H16.0317C15.8016 22.5 15.6151 22.3135 15.6151 22.0834ZM18.5317 23.3334C18.3016 23.3334 18.1151 23.5199 18.1151 23.75C18.1151 23.9801 18.3016 24.1667 18.5317 24.1667H20.1984C20.4285 24.1667 20.6151 23.9801 20.6151 23.75C20.6151 23.5199 20.4285 23.3334 20.1984 23.3334H18.5317Z" fill="#1BC5BD"/></svg>