<svg width="100%" height="100%" style="overflow:visible;" preserveAspectRatio="none" viewBox="0 0 319.24 78.22" fill="none" xmlns="http://www.w3.org/2000/svg"><rect width="319.237" height="78.2167" fill="#1B1B28"/><path d="M275.516 32.1375C275.986 31.6676 275.986 30.9057 275.516 30.4358C275.045 29.9658 274.283 29.9658 273.812 30.4358L266.584 37.6558C266.128 38.1113 266.112 38.8449 266.548 39.3198L273.174 46.5398C273.623 47.0297 274.385 47.0628 274.876 46.6137C275.366 46.1646 275.399 45.4034 274.95 44.9135L269.103 38.5429L275.516 32.1375Z" fill="#6993FF"/><path opacity="0.3" d="M283.949 32.1375C284.419 31.6676 284.419 30.9057 283.949 30.4358C283.478 29.9658 282.715 29.9658 282.245 30.4358L275.017 37.6558C274.561 38.1113 274.545 38.8449 274.981 39.3198L281.606 46.5398C282.056 47.0297 282.818 47.0628 283.308 46.6137C283.799 46.1646 283.832 45.4034 283.382 44.9135L277.536 38.5429L283.949 32.1375Z" fill="#6993FF"/></svg>